<?xml version="1.0" encoding="UTF-8" standalone="no"?>
<!-- Created with Inkscape (http://www.inkscape.org/) -->

<svg
   width="48"
   height="48"
   viewBox="0 0 12.7 12.7"
   version="1.1"
   id="svg290"
   inkscape:version="1.2.2 (b0a8486541, 2022-12-01)"
   sodipodi:docname="favicon-inkscape.svg"
   inkscape:export-filename="../../../../Downloads/favicon.png"
   inkscape:export-xdpi="600"
   inkscape:export-ydpi="600"
   xmlns:inkscape="http://www.inkscape.org/namespaces/inkscape"
   xmlns:sodipodi="http://sodipodi.sourceforge.net/DTD/sodipodi-0.dtd"
   xmlns:xlink="http://www.w3.org/1999/xlink"
   xmlns="http://www.w3.org/2000/svg"
   xmlns:svg="http://www.w3.org/2000/svg">
  <sodipodi:namedview
     id="namedview292"
     pagecolor="#ffffff"
     bordercolor="#999999"
     borderopacity="1"
     inkscape:showpageshadow="0"
     inkscape:pageopacity="0"
     inkscape:pagecheckerboard="0"
     inkscape:deskcolor="#d1d1d1"
     inkscape:document-units="mm"
     showgrid="false"
     inkscape:zoom="17.053416"
     inkscape:cx="19.761437"
     inkscape:cy="23.895506"
     inkscape:window-width="1872"
     inkscape:window-height="967"
     inkscape:window-x="24"
     inkscape:window-y="52"
     inkscape:window-maximized="0"
     inkscape:current-layer="layer1" />
  <defs
     id="defs287">
    <inkscape:path-effect
       effect="fillet_chamfer"
       id="path-effect3183"
       is_visible="true"
       lpeversion="1"
       nodesatellites_param="F,0,0,1,0,0.52916667,0,1 @ F,0,0,1,0,0.52916667,0,1 @ F,0,0,1,0,0.52916667,0,1 @ F,0,0,1,0,0.52916667,0,1 @ F,0,0,1,0,0.52916667,0,1 @ F,0,0,1,0,0.52916667,0,1 @ F,0,0,1,0,0.52916667,0,1 @ F,0,0,1,0,0.52916667,0,1 @ F,0,0,1,0,0.52916667,0,1 @ F,0,0,1,0,0.52916667,0,1 @ F,0,0,1,0,0.52916667,0,1 @ F,0,0,1,0,0.52916667,0,1 @ F,0,0,1,0,0.52916667,0,1 @ F,0,0,1,0,0.52916667,0,1 @ F,0,0,1,0,0.52916667,0,1 @ F,0,0,1,0,0.52916667,0,1 @ F,0,0,1,0,0.52916667,0,1 @ F,0,0,1,0,0.52916667,0,1 @ F,0,0,1,0,0.52916667,0,1 @ F,0,0,1,0,0.52916667,0,1 @ F,0,0,1,0,0.52916667,0,1 @ F,0,0,1,0,0.52916667,0,1 @ F,0,0,1,0,0.52916667,0,1"
       unit="px"
       method="auto"
       mode="F"
       radius="2"
       chamfer_steps="1"
       flexible="false"
       use_knot_distance="true"
       apply_no_radius="true"
       apply_with_radius="true"
       only_selected="false"
       hide_knots="false" />
    <inkscape:path-effect
       effect="bspline"
       id="path-effect3181"
       is_visible="true"
       lpeversion="1"
       weight="8.2"
       steps="10"
       helper_size="0"
       apply_no_weight="true"
       apply_with_weight="true"
       only_selected="false" />
    <linearGradient
       id="linearGradient3050"
       inkscape:swatch="gradient">
      <stop
         style="stop-color:#4db300;stop-opacity:1;"
         offset="0"
         id="stop3046" />
      <stop
         style="stop-color:#4db300;stop-opacity:0;"
         offset="1"
         id="stop3048" />
    </linearGradient>
    <linearGradient
       id="linearGradient1017">
      <stop
         style="stop-color:#f09819;stop-opacity:1;"
         offset="0"
         id="stop1037" />
      <stop
         style="stop-color:#edde5d;stop-opacity:1;"
         offset="0.70999998"
         id="stop1039" />
    </linearGradient>
    <linearGradient
       inkscape:collect="always"
       xlink:href="#linearGradient1017"
       id="linearGradient945"
       x1="0.97634077"
       y1="6.3500004"
       x2="11.723659"
       y2="6.3500004"
       gradientUnits="userSpaceOnUse" />
  </defs>
  <g
     inkscape:label="Layer 1"
     inkscape:groupmode="layer"
     id="layer1">
    <circle
       style="fill:#303030;fill-opacity:1;stroke-width:0.264583"
       id="path1135"
       cx="6.3499999"
       cy="6.3499999"
       r="6.3499999" />
    <g
       aria-label="Fw"
       id="text374"
       style="font-size:7.99057px;fill:url(#linearGradient945);stroke-width:0.214033">
      <path
         d="m 8.071967,3.0778619 q 0.223736,0.031962 0.3036417,0.1358397 0.087896,0.1038774 0.087896,0.2716794 0,0.5513493 -0.5913022,0.5113965 l -0.27967,-0.023972 Q 7.1210892,3.9328529 6.6496455,3.9088812 6.1861925,3.8849095 5.674796,3.8849095 H 5.3152203 Q 5.2193335,5.0675138 5.1154561,6.0423634 l 1.374378,-0.023972 q 0.2956511,0 0.391538,0.1038774 0.1038774,0.1038774 0.1038774,0.2796699 0,0.2716794 -0.1598114,0.4314908 Q 6.6656267,6.9852507 6.3699756,6.9852507 H 5.0035881 L 4.9556447,7.3288452 Q 4.7878427,8.6472892 4.2364934,9.2066291 3.6931346,9.765969 2.7342662,9.765969 2.1909074,9.765969 1.735445,9.5342425 1.2799825,9.2945254 1.0642371,8.9589215 0.9763408,8.8230818 0.9763408,8.6313081 q 0,-0.1917737 0.0878963,-0.3356039 0.095887,-0.1438303 0.2317265,-0.1438303 0.095887,0 0.1837831,0.063925 0.095887,0.063925 0.2397171,0.2477076 0.3835474,0.5034059 0.9508779,0.5034059 0.4554624,0 0.7591041,-0.3675662 Q 3.741078,8.223789 3.8289743,7.424732 L 3.8769177,6.9852507 H 3.4933704 q -0.1837831,0 -0.3196228,-0.1038774 -0.1278492,-0.1038775 -0.1278492,-0.2956511 0,-0.2477077 0.1278492,-0.3755568 0.1278491,-0.1358397 0.3755568,-0.1358397 0.2237359,0 0.4394813,-0.00799 0.095887,-0.8789627 0.2077548,-2.1334822 -0.8629815,0.079906 -1.2145666,0.27967 -0.3515851,0.1997642 -0.3515851,0.5913021 0,0.2716794 0.1598114,0.5193871 0.047943,0.071915 0.047943,0.1438303 0,0.1438302 -0.1598114,0.2556982 Q 2.5185208,5.826618 2.3187566,5.826618 2.1030112,5.826618 1.9511903,5.6987689 1.8553035,5.6188632 1.7674072,5.3711555 1.679511,5.1234478 1.679511,4.8198062 q 0,-0.9908307 1.0148024,-1.4383026 1.0227929,-0.447472 2.9804826,-0.447472 1.3583969,0 2.397171,0.1438303 z"
         style="font-family:Pacifico;-inkscape-font-specification:Pacifico"
         id="path322" />
      <path
         d="m 11.284178,5.9704483 q 0.439481,0 0.439481,0.2796699 0,0.095887 -0.06392,0.2636888 -0.647237,1.5102178 -1.222558,2.4371239 -0.28766,0.4554625 -0.5193866,0.6232645 -0.2317265,0.1678019 -0.5273776,0.1678019 -0.3196228,0 -0.4794342,-0.2477076 Q 8.7591577,9.246582 8.7192049,8.6792515 8.7032237,8.4714967 8.6872426,8.0559871 8.4395349,8.7431761 8.2317801,9.1107423 8.0320158,9.470318 7.8322516,9.6061576 7.6404779,9.7419973 7.3687985,9.7419973 q -0.3276133,0 -0.519387,-0.2556982 Q 6.6656284,9.2306009 6.6176849,8.6792515 6.5217981,7.5605717 6.5217981,6.7215619 v -0.27967 q 0.00799,-0.2716794 0.1358397,-0.3675662 0.1278491,-0.1038774 0.4155096,-0.1038774 0.2077549,0 0.3036417,0.095887 0.1038774,0.087896 0.1038774,0.3036417 0,0.9189155 0.111868,2.3891804 0.2636888,-0.5593399 0.4874248,-1.0707364 0.2237359,-0.5113965 0.519387,-1.3104535 0.087896,-0.2397171 0.2077548,-0.3196228 0.1278492,-0.087896 0.2956511,-0.087896 0.223736,0 0.335604,0.095887 0.111868,0.087896 0.111868,0.3036417 v 1.2385383 q 0,0.799057 0.00799,1.1506421 0.3675663,-0.6392456 0.5992923,-1.1106892 0.239718,-0.4714437 0.535369,-1.2705007 0.0879,-0.2397171 0.231726,-0.3196228 0.14383,-0.087896 0.359576,-0.087896 z"
         style="font-family:Pacifico;-inkscape-font-specification:Pacifico"
         id="path324" />
    </g>
  </g>
</svg>
