<svg xmlns="http://www.w3.org/2000/svg" version="1.1" xmlns:xlink="http://www.w3.org/1999/xlink" xmlns:svgjs="http://svgjs.dev/svgjs" viewBox="0 0 24 24">
  <defs>
    <linearGradient gradientTransform="rotate(189, 0.5, 0.5)" x1="50%" y1="0%" x2="50%" y2="100%" id="ffflux-gradient">
      <stop stop-color="hsl(57, 100%, 72%)" stop-opacity="1" offset="0%"/>
      <stop stop-color="hsl(55, 36%, 82%)" stop-opacity="1" offset="100%"/>
    </linearGradient>
    <filter id="ffflux-filter" x="-20%" y="-20%" width="140%" height="140%" filterUnits="objectBoundingBox" primitiveUnits="userSpaceOnUse" color-interpolation-filters="sRGB">
      <feTurbulence type="fractalNoise" baseFrequency="0.005 0.003" numOctaves="2" seed="2" stitchTiles="stitch" x="0%" y="0%" width="100%" height="100%" result="turbulence"/>
      <feGaussianBlur stdDeviation="20 0" x="0%" y="0%" width="100%" height="100%" in="turbulence" edgeMode="duplicate" result="blur"/>
      <feBlend mode="color-dodge" x="0%" y="0%" width="100%" height="100%" in="SourceGraphic" in2="blur" result="blend"/>
      <feColorMatrix type="saturate" values="3" x="0%" y="0%" width="100%" height="100%" in="blend" result="colormatrix"/>
    </filter>
  </defs>
    <path fill="url(#ffflux-gradient)" d="M10.788 3.21c.448-1.077 1.976-1.077 2.424 0l2.082 5.007 5.404.433c1.164.093 1.636 1.545.749 2.305l-4.117 3.527 1.257 5.273c.271 1.136-.964 2.033-1.96 1.425L12 18.354 7.373 21.18c-.996.608-2.231-.29-1.96-1.425l1.257-5.273-4.117-3.527c-.887-.76-.415-2.212.749-2.305l5.404-.433 2.082-5.006z"/>
</svg>
